<svg xmlns="http://www.w3.org/2000/svg"
 xmlns:xlink="http://www.w3.org/1999/xlink"
 width="43px" height="30px"  viewBox="0 0 43 30">
<path fill-rule="evenodd"  fill="#916fbc"
 d="M1.478241,4.8405266 C1.478241,4.8405266 1.3701172,25.6035 14.022705,28.848095 C12.616882,26.306591 11.102844,22.846092 11.859863,17.168598 C9.751068,13.816269 6.3446045,9.490433 1.478241,4.8405266 ZM41.560944,4.8405266 C41.560944,4.8405266 41.669098,25.6035 29.01651,28.848095 C30.422302,26.306591 31.93634,22.846092 31.179321,17.168598 C33.288147,13.816269 36.69458,9.490433 41.560944,4.8405266 ZM27.726532,6.0130615 C27.726532,6.0130615 29.795502,8.771767 30.600159,13.484409 C32.09439,10.61105 33.128937,9.691624 35.427734,7.5070724 C34.50818,3.1392689 33.588654,1.1848965 33.588654,1.1848965 C33.588654,1.1848965 27.726532,6.0130615 27.726532,6.0130615 ZM15.56958,6.0130615 C15.56958,6.0130615 13.50061,8.771767 12.695984,13.484409 C11.201721,10.61105 10.167175,9.691624 7.868286,7.5070724 C8.787933,3.1392689 9.7074585,1.1848965 9.7074585,1.1848965 C9.7074585,1.1848965 15.56958,6.0130615 15.56958,6.0130615 ZM16.806915,28.887901 C16.806915,28.887901 25.772583,28.887901 25.772583,28.887901 C25.772583,28.887901 28.761078,22.91056 28.761078,17.507809 C28.761078,12.105492 25.772583,7.5070724 21.519592,2.4495926 C18.645996,6.0130615 10.714905,13.599503 16.806915,28.887901 Z"/>
</svg>